<svg width="84" height="84" viewBox="0 0 84 84" fill="none" xmlns="http://www.w3.org/2000/svg">
<path d="M83 41.085C83 63.08 66.4 82.585 41.0849 83C41.0849 83 3.42255 82.585 3.23934e-09 41.085C0 26.145 12.035 1.245 40.2549 0C75.115 1.66 82.1701 28.635 83 41.085Z" fill="white"/>
<path d="M83.0071 41.5167C83.0115 34.6095 81.2908 27.8105 78.0012 21.7364C74.7115 15.6622 69.957 10.5053 64.1688 6.73318C58.3807 2.96112 51.7421 0.693324 44.8552 0.135523C37.9683 -0.422279 31.0511 0.747559 24.7311 3.53892C18.411 6.33028 12.888 10.6548 8.66308 16.1203C4.43819 21.5858 1.64507 28.0192 0.537098 34.8371C-0.570874 41.6549 0.0413559 48.6414 2.31825 55.1628C4.59515 61.6843 8.46467 67.5342 13.5758 72.1821C13.6769 72.3021 13.7945 72.407 13.9253 72.4937C21.5148 79.2649 31.3316 83.0072 41.5041 83.0071C51.6767 83.0069 61.4934 79.2644 69.0827 72.4929C69.2128 72.4065 69.3299 72.3021 69.4306 72.1827C73.7085 68.301 77.1264 63.5672 79.4646 58.2858C81.8028 53.0044 83.0095 47.2923 83.0071 41.5167ZM3.32028 41.5167C3.31592 35.2413 4.85934 29.0615 7.8139 23.5246C10.7685 17.9876 15.043 13.2643 20.2591 9.77277C25.4753 6.28122 31.4721 4.12916 37.7186 3.50711C43.9652 2.88505 50.2688 3.81219 56.0714 6.20645C61.8741 8.60071 66.9967 12.3882 70.9858 17.2337C74.975 22.0792 77.7076 27.8331 78.9417 33.9861C80.1758 40.1391 79.8733 46.5014 78.0611 52.5097C76.2489 58.518 72.9828 63.9869 68.552 68.4324C64.431 61.5334 57.8191 56.4782 50.0797 54.3089C53.6767 52.3961 56.5306 49.3357 58.1873 45.6146C59.844 41.8935 60.2083 37.7254 59.2223 33.7735C58.2362 29.8215 55.9566 26.3127 52.7458 23.8053C49.5351 21.2978 45.5778 19.9358 41.5035 19.9358C37.4292 19.9358 33.4719 21.2978 30.2612 23.8053C27.0505 26.3127 24.7708 29.8215 23.7848 33.7735C22.7988 37.7254 23.1631 41.8935 24.8198 45.6146C26.4765 49.3357 29.3304 52.3961 32.9274 54.3089C25.188 56.4782 18.5762 61.5333 14.4551 68.4322C10.9219 64.8966 8.12004 60.6999 6.20951 56.0817C4.29897 51.4635 3.31721 46.5143 3.32028 41.5167ZM41.5035 53.134C38.5484 53.134 35.6597 52.258 33.2026 50.6168C30.7455 48.9755 28.8305 46.6428 27.6996 43.9135C26.5687 41.1842 26.2728 38.181 26.8494 35.2836C27.4259 32.3862 28.8489 29.7247 30.9385 27.6358C33.028 25.5469 35.6903 24.1243 38.5886 23.548C41.487 22.9717 44.4911 23.2675 47.2213 24.398C49.9515 25.5285 52.285 27.4429 53.9268 29.8992C55.5685 32.3555 56.4448 35.2434 56.4448 38.1975C56.4403 42.1576 54.8647 45.9541 52.0637 48.7543C49.2626 51.5545 45.4648 53.1296 41.5035 53.134ZM16.9603 70.733C19.4243 66.3971 22.9936 62.7914 27.3048 60.2831C31.6161 57.7747 36.5152 56.4533 41.5035 56.4533C46.4917 56.4533 51.3909 57.7748 55.7021 60.2832C60.0134 62.7916 63.5826 66.3973 66.0465 70.7332C59.1769 76.5164 50.4845 79.6879 41.5034 79.6878C32.5223 79.6878 23.8299 76.5163 16.9603 70.733Z" fill="#9E9E9E"/>
</svg>
